<svg width="411" xmlns="http://www.w3.org/2000/svg" height="413" id="screenshot-3327074e-49d6-8039-8008-925a33db2fc5" viewBox="0 0 411 413" xmlns:xlink="http://www.w3.org/1999/xlink" fill="none" version="1.1"><g id="shape-3327074e-49d6-8039-8008-925a33db2fc5"><g class="frame-container-wrapper"><g class="frame-container-blur"><g class="frame-container-shadows"><g fill="none"><g class="fills" id="fills-3327074e-49d6-8039-8008-925a33db2fc5"><rect rx="0" ry="0" x="0" y="0" width="411" height="413" transform="matrix(1.000000, 0.000000, 0.000000, 1.000000, 0.000000, 0.000000)" class="frame-background"/></g><g class="frame-children"><g id="shape-3327074e-49d6-8039-8008-9258c65dfa55" width="512" height="512" rx="0" ry="0" style="fill: rgb(0, 0, 0);"><g id="shape-3327074e-49d6-8039-8008-9258c660dd4d" style="display: none;"><g class="fills" id="fills-3327074e-49d6-8039-8008-9258c660dd4d"><rect width="411" height="413" x="0" transform="matrix(1.000000, 0.000000, 0.000000, 1.000000, 0.000000, 0.000000)" style="fill: none;" ry="0" fill="none" rx="0" y="0"/></g></g><g id="shape-3327074e-49d6-8039-8008-9258c6620881"><g class="fills" id="fills-3327074e-49d6-8039-8008-9258c6620881"><path d="M205.5,140.35546875C197.47265625,122.609375,188.642578125,86.310546875,191.05078125,61.3046875C192.65625,45.978515625,199.880859375,31.458984375,205.5,22.5859375C211.119140625,31.458984375,218.34375,45.978515625,219.94921875,61.3046875C222.357421875,86.310546875,213.52734375,122.609375,205.5,140.35546875Z" style="fill: rgb(173, 100, 247);"/></g></g><g id="shape-3327074e-49d6-8039-8008-9258c662bb18"><g class="fills" id="fills-3327074e-49d6-8039-8008-9258c662bb18"><path d="M234.061279296875,146.9052734375C234.4866943359375,127.4169921875,242.208984375,90.8603515625,255.1732177734375,69.38720703125C263.2406005859375,56.279296875,276.0201416015625,46.341796875,284.9144287109375,40.7998046875C286.1427001953125,51.24560546875,286.383544921875,67.4755859375,281.2139892578125,81.9873046875C272.5845947265625,105.56494140625,248.9520263671875,134.4189453125,234.061279296875,146.9052734375Z" style="fill: rgb(173, 100, 247);"/></g></g><g id="shape-3327074e-49d6-8039-8008-9258c662bb19"><g class="fills" id="fills-3327074e-49d6-8039-8008-9258c662bb19"><path d="M256.9632568359375,165.25634765625C265.769287109375,147.88916015625,288.5028076171875,118.318359375,309.462158203125,104.62158203125C322.3861083984375,96.3291015625,338.1839599609375,92.94921875,348.595458984375,91.82763671875C345.19189453125,101.7822265625,338.4007568359375,116.50341796875,327.4754638671875,127.31982421875C309.5263671875,144.80810546875,275.7794189453125,160.50537109375,256.9632568359375,165.25634765625Z" style="fill: rgb(173, 100, 247);"/></g></g><g id="shape-3327074e-49d6-8039-8008-9258c662bb1a"><g class="fills" id="fills-3327074e-49d6-8039-8008-9258c662bb1a"><path d="M269.6705322265625,191.77880859375C285.107177734375,179.96923828125,318.3564453125,163.23974609375,343.15283203125,160.03759765625C358.3807373046875,158.1982421875,374.07421875,162.04638671875,383.9317626953125,165.5791015625C376.5787353515625,173.056640625,364.0963134765625,183.365234375,349.582763671875,188.3427734375C325.8619384765625,196.271484375,288.6793212890625,195.69873046875,269.6705322265625,191.77880859375Z" style="fill: rgb(173, 100, 247);"/></g></g><g id="shape-3327074e-49d6-8039-8008-9258c662bb1b"><g class="fills" id="fills-3327074e-49d6-8039-8008-9258c662bb1b"><path d="M269.6705322265625,221.22119140625C288.6793212890625,217.30126953125,325.8619384765625,216.728515625,349.582763671875,224.6572265625C364.0963134765625,229.634765625,376.5787353515625,239.943359375,383.9317626953125,247.4208984375C374.07421875,250.95361328125,358.3807373046875,254.8017578125,343.15283203125,252.96240234375C318.3564453125,249.76025390625,285.107177734375,233.03076171875,269.6705322265625,221.22119140625Z" style="fill: rgb(173, 100, 247);"/></g></g><g id="shape-3327074e-49d6-8039-8008-9258c662c059"><g class="fills" id="fills-3327074e-49d6-8039-8008-9258c662c059"><path d="M256.9632568359375,247.74365234375C275.7794189453125,252.49462890625,309.5263671875,268.19189453125,327.4754638671875,285.68017578125C338.4007568359375,296.49658203125,345.19189453125,311.2177734375,348.595458984375,321.17236328125C338.1839599609375,320.05078125,322.3861083984375,316.6708984375,309.462158203125,308.37841796875C288.5028076171875,294.681640625,265.769287109375,265.11083984375,256.9632568359375,247.74365234375Z" style="fill: rgb(173, 100, 247);"/></g></g><g id="shape-3327074e-49d6-8039-8008-9258c662c05a"><g class="fills" id="fills-3327074e-49d6-8039-8008-9258c662c05a"><path d="M234.061279296875,266.0947265625C248.9520263671875,278.5810546875,272.5845947265625,307.43505859375,281.2139892578125,331.0126953125C286.383544921875,345.5244140625,286.1427001953125,361.75439453125,284.9144287109375,372.2001953125C276.0201416015625,366.658203125,263.2406005859375,356.720703125,255.1732177734375,343.61279296875C242.208984375,322.1396484375,234.4866943359375,285.5830078125,234.061279296875,266.0947265625Z" style="fill: rgb(173, 100, 247);"/></g></g><g id="shape-3327074e-49d6-8039-8008-9258c662c05b"><g class="fills" id="fills-3327074e-49d6-8039-8008-9258c662c05b"><path d="M205.5,272.64453125C213.52734375,290.390625,222.357421875,326.689453125,219.94921875,351.6953125C218.34375,367.021484375,211.119140625,381.541015625,205.5,390.4140625C199.880859375,381.541015625,192.65625,367.021484375,191.05078125,351.6953125C188.642578125,326.689453125,197.47265625,290.390625,205.5,272.64453125Z" style="fill: rgb(173, 100, 247);"/></g></g><g id="shape-3327074e-49d6-8039-8008-9258c662c05c"><g class="fills" id="fills-3327074e-49d6-8039-8008-9258c662c05c"><path d="M176.938720703125,266.0947265625C176.5133056640625,285.5830078125,168.791015625,322.1396484375,155.8267822265625,343.61279296875C147.7593994140625,356.720703125,134.9798583984375,366.658203125,126.0855712890625,372.2001953125C124.8572998046875,361.75439453125,124.616455078125,345.5244140625,129.7860107421875,331.0126953125C138.4154052734375,307.43505859375,162.0479736328125,278.5810546875,176.938720703125,266.0947265625Z" style="fill: rgb(173, 100, 247);"/></g></g><g id="shape-3327074e-49d6-8039-8008-9258c663393c"><g class="fills" id="fills-3327074e-49d6-8039-8008-9258c663393c"><path d="M154.0367431640625,247.74365234375C145.230712890625,265.11083984375,122.4971923828125,294.681640625,101.537841796875,308.37841796875C88.6138916015625,316.6708984375,72.8160400390625,320.05078125,62.404541015625,321.17236328125C65.80810546875,311.2177734375,72.5992431640625,296.49658203125,83.5245361328125,285.68017578125C101.4736328125,268.19189453125,135.2205810546875,252.49462890625,154.0367431640625,247.74365234375Z" style="fill: rgb(173, 100, 247);"/></g></g><g id="shape-3327074e-49d6-8039-8008-9258c663393d"><g class="fills" id="fills-3327074e-49d6-8039-8008-9258c663393d"><path d="M141.3294677734375,221.22119140625C125.892822265625,233.03076171875,92.6435546875,249.76025390625,67.84716796875,252.96240234375C52.6192626953125,254.8017578125,36.92578125,250.95361328125,27.0682373046875,247.4208984375C34.4212646484375,239.943359375,46.90380859375,229.634765625,61.417236328125,224.6572265625C85.1380615234375,216.728515625,122.3206787109375,217.30126953125,141.3294677734375,221.22119140625Z" style="fill: rgb(173, 100, 247);"/></g></g><g id="shape-3327074e-49d6-8039-8008-9258c663393e"><g class="fills" id="fills-3327074e-49d6-8039-8008-9258c663393e"><path d="M141.3294677734375,191.77880859375C122.3206787109375,195.69873046875,85.1380615234375,196.271484375,61.417236328125,188.3427734375C46.90380859375,183.365234375,34.4212646484375,173.056640625,27.0682373046875,165.5791015625C36.92578125,162.04638671875,52.6192626953125,158.1982421875,67.84716796875,160.03759765625C92.6435546875,163.23974609375,125.892822265625,179.96923828125,141.3294677734375,191.77880859375Z" style="fill: rgb(173, 100, 247);"/></g></g><g id="shape-3327074e-49d6-8039-8008-9258c663393f"><g class="fills" id="fills-3327074e-49d6-8039-8008-9258c663393f"><path d="M154.0367431640625,165.25634765625C135.2205810546875,160.50537109375,101.4736328125,144.80810546875,83.5245361328125,127.31982421875C72.5992431640625,116.50341796875,65.80810546875,101.7822265625,62.404541015625,91.82763671875C72.8160400390625,92.94921875,88.6138916015625,96.3291015625,101.537841796875,104.62158203125C122.4971923828125,118.318359375,145.230712890625,147.88916015625,154.0367431640625,165.25634765625Z" style="fill: rgb(173, 100, 247);"/></g></g><g id="shape-3327074e-49d6-8039-8008-9258c6633940"><g class="fills" id="fills-3327074e-49d6-8039-8008-9258c6633940"><path d="M176.938720703125,146.9052734375C162.0479736328125,134.4189453125,138.4154052734375,105.56494140625,129.7860107421875,81.9873046875C124.616455078125,67.4755859375,124.8572998046875,51.24560546875,126.0855712890625,40.7998046875C134.9798583984375,46.341796875,147.7593994140625,56.279296875,155.8267822265625,69.38720703125C168.791015625,90.8603515625,176.5133056640625,127.4169921875,176.938720703125,146.9052734375Z" style="fill: rgb(173, 100, 247);"/></g></g><g id="shape-3327074e-49d6-8039-8008-9258c6633941"><g class="fills" id="fills-3327074e-49d6-8039-8008-9258c6633941"><ellipse cx="205.5" cy="206.5" rx="57.796875" ry="58.078125" transform="matrix(1.000000, 0.000000, 0.000000, 1.000000, 0.000000, 0.000000)" style="fill: rgb(255, 224, 81);"/></g></g></g></g></g></g></g></g></g></svg>