<svg width="53" xmlns="http://www.w3.org/2000/svg" height="47" id="screenshot-368d43ae-3722-80f4-8008-4d709e1c0444" viewBox="0 0 53 47" xmlns:xlink="http://www.w3.org/1999/xlink" fill="none" version="1.1"><g id="shape-368d43ae-3722-80f4-8008-4d709e1c0444" rx="0" ry="0"><g id="shape-13d5ea6f-758f-80bc-8008-4d6f69933552"><g class="frame-container-wrapper"><g class="frame-container-blur"><g class="frame-container-shadows"><g fill="none"><g class="fills" id="fills-13d5ea6f-758f-80bc-8008-4d6f69933552"><rect rx="0" ry="0" x="0" y="0" width="24" height="24" transform="matrix(1.000000, 0.000000, 0.000000, 1.000000, 0.000000, 0.000000)" class="frame-background"/></g><g class="frame-children"><g id="shape-13d5ea6f-758f-80bc-8008-4d6f69933553" style="display: none;"><g class="fills" id="fills-13d5ea6f-758f-80bc-8008-4d6f69933553"><rect width="24" height="24" x="0" stroke-linejoin="round" transform="matrix(1.000000, 0.000000, 0.000000, 1.000000, 0.000000, 0.000000)" style="fill: none;" ry="0" fill="none" stroke-linecap="round" rx="0" y="0"/></g><g fill="none" stroke-linejoin="round" stroke-linecap="round" id="strokes-bf9faff0-693f-80af-8008-7e02868f8fb0-13d5ea6f-758f-80bc-8008-4d6f69933553" class="strokes"><g class="stroke-shape"><rect rx="0" ry="0" x="0" y="0" transform="matrix(1.000000, 0.000000, 0.000000, 1.000000, 0.000000, 0.000000)" width="24" height="24" style="fill: none; stroke-width: 2; stroke: rgb(0, 0, 0); stroke-opacity: 1;"/></g></g></g><g id="shape-13d5ea6f-758f-80bc-8008-4d6f69933554"><g class="fills" id="fills-13d5ea6f-758f-80bc-8008-4d6f69933554"><ellipse cy="30.5" stroke-linejoin="round" transform="matrix(1.000000, 0.000000, 0.000000, 1.000000, 0.000000, 0.000000)" style="fill: none;" ry="2.5" fill="none" stroke-linecap="round" rx="2.5" cx="13.5"/></g><g fill="none" stroke-linecap="round" stroke-linejoin="round" id="strokes-bf9faff0-693f-80af-8008-7e0286905bdd-13d5ea6f-758f-80bc-8008-4d6f69933554" class="strokes"><g class="inner-stroke-shape" transform="matrix(1.000000, 0.000000, 0.000000, 1.000000, 0.000000, 0.000000)"><defs><clipPath id="inner-stroke-render-4-13d5ea6f-758f-80bc-8008-4d6f69933554-0"><use href="#stroke-shape-render-4-13d5ea6f-758f-80bc-8008-4d6f69933554-0"/></clipPath><ellipse cx="13.5" cy="30.5" rx="2.5" ry="2.5" id="stroke-shape-render-4-13d5ea6f-758f-80bc-8008-4d6f69933554-0" style="fill: none; stroke-width: 40; stroke: rgb(173, 100, 247); stroke-opacity: 1;"/></defs><use href="#stroke-shape-render-4-13d5ea6f-758f-80bc-8008-4d6f69933554-0" clip-path="url('#inner-stroke-render-4-13d5ea6f-758f-80bc-8008-4d6f69933554-0')"/></g></g></g><g id="shape-13d5ea6f-758f-80bc-8008-4d6f69933555"><g class="fills" id="fills-13d5ea6f-758f-80bc-8008-4d6f69933555"><ellipse cy="30.5" stroke-linejoin="round" transform="matrix(1.000000, 0.000000, 0.000000, 1.000000, 0.000000, 0.000000)" style="fill: none;" ry="2.5" fill="none" stroke-linecap="round" rx="2.5" cx="31.5"/></g><g fill="none" stroke-linecap="round" stroke-linejoin="round" id="strokes-bf9faff0-693f-80af-8008-7e028690c8be-13d5ea6f-758f-80bc-8008-4d6f69933555" class="strokes"><g class="inner-stroke-shape" transform="matrix(1.000000, 0.000000, 0.000000, 1.000000, 0.000000, 0.000000)"><defs><clipPath id="inner-stroke-render-5-13d5ea6f-758f-80bc-8008-4d6f69933555-0"><use href="#stroke-shape-render-5-13d5ea6f-758f-80bc-8008-4d6f69933555-0"/></clipPath><ellipse cx="31.5" cy="30.5" rx="2.5" ry="2.5" id="stroke-shape-render-5-13d5ea6f-758f-80bc-8008-4d6f69933555-0" style="fill: none; stroke-width: 40; stroke: rgb(173, 100, 247); stroke-opacity: 1;"/></defs><use href="#stroke-shape-render-5-13d5ea6f-758f-80bc-8008-4d6f69933555-0" clip-path="url('#inner-stroke-render-5-13d5ea6f-758f-80bc-8008-4d6f69933555-0')"/></g></g></g><g id="shape-13d5ea6f-758f-80bc-8008-4d6f69933556"><g class="fills" id="fills-13d5ea6f-758f-80bc-8008-4d6f69933556"><path d="M4,1.999755859375L7.193603515625,1.999755859375L11.441162109375,20.62890625C11.762451171875,22.03662109375,13.102783203125,23.03125,14.634765625,22.9990234375L30.25146484375,22.9990234375C31.748779296875,22.99755859375,33.0433349609375,22.017578125,33.365234375,20.64501953125L36,9.49951171875L8.9022216796875,9.49951171875" fill="none" stroke-linecap="round" stroke-linejoin="round" style="fill: none;"/></g><g fill="none" stroke-linecap="round" stroke-linejoin="round" id="strokes-bf9faff0-693f-80af-8008-7e0286919f36-13d5ea6f-758f-80bc-8008-4d6f69933556" class="strokes"><g class="stroke-shape"><path d="M4,1.999755859375L7.193603515625,1.999755859375L11.441162109375,20.62890625C11.762451171875,22.03662109375,13.102783203125,23.03125,14.634765625,22.9990234375L30.25146484375,22.9990234375C31.748779296875,22.99755859375,33.0433349609375,22.017578125,33.365234375,20.64501953125L36,9.49951171875L8.9022216796875,9.49951171875" style="fill: none; stroke-width: 3; stroke: rgb(173, 100, 247); stroke-opacity: 1;"/></g></g></g></g></g></g></g></g></g></g></svg>